<svg width="2403" height="656" viewBox="0 0 2403 656" fill="none" xmlns="http://www.w3.org/2000/svg">
<path d="M34.024 551.97C88.1043 394.803 140.353 237.187 190.765 79.1406C220.478 83.5001 250.215 87.6647 279.97 91.6402C261.415 152.786 242.589 213.872 223.491 274.893C250.192 278.579 276.904 282.117 303.634 285.508C322.047 224.274 340.188 162.981 358.057 101.635C387.847 105.28 417.648 108.73 447.468 111.99C402.916 271.78 356.515 431.215 308.271 590.26C276.408 586.403 244.562 582.344 212.74 578.085C232.299 516.373 251.574 454.601 270.577 392.771C243.446 389.262 216.332 385.594 189.229 381.784C169.535 443.401 149.563 504.954 129.313 566.436C97.5262 561.817 65.7692 556.997 34.024 551.97Z" fill="#001BA5"/>
<path d="M345.425 594.649C384.749 518.216 423.122 441.494 460.55 364.493C505.002 273.074 544.568 193.244 579.964 125.211C618.532 128.696 657.118 131.857 695.721 134.704C695.656 210.026 693.323 295.403 688.579 390.828C684.71 469.116 680.9 547.415 677.143 625.709C641.694 623.175 606.257 620.399 570.843 617.362C574.387 588.813 577.926 560.258 581.446 531.708C551.302 529.138 521.175 526.392 491.061 523.456C479.075 551.172 466.983 578.865 454.79 606.529C418.314 602.837 381.86 598.879 345.431 594.655L345.425 594.649ZM528.093 436.856C549.3 438.841 570.518 440.732 591.737 442.533C600.757 367.908 609.701 293.276 618.561 218.633C589.126 291.551 558.97 364.298 528.093 436.856Z" fill="#001BA5"/>
<path d="M878.688 644.366C831.791 642.275 796.182 621.588 772.429 582.795C748.635 543.991 739.119 492.345 743.271 428.027C746.727 374.348 758.595 325.638 778.407 281.783C798.22 237.928 824.466 203.465 857.085 178.183C889.711 152.906 925.242 141.026 964.212 142.415C992.927 143.437 1017.97 151.352 1039.58 166.262C1032.87 201.351 1026.08 236.427 1019.2 271.493C1004.58 258.568 987.079 251.786 966.604 251.077C933.294 249.919 905.56 266.601 882.935 301.3C860.322 336.005 847.545 377.822 845.064 426.911C841.408 497.732 864.516 534.545 914.409 536.583C934.623 537.399 954.507 532.791 973.953 522.743C966.658 558.694 959.268 594.633 951.795 630.567C928.739 640.898 904.319 645.506 878.688 644.366Z" fill="#001BA5"/>
<path d="M997.562 641.768C1031.01 478.972 1062.58 315.963 1092.3 152.765C1122.24 153.285 1152.2 153.616 1182.16 153.752C1169.48 229.045 1156.42 304.308 1142.96 379.531C1180.09 304.539 1216.09 229.269 1250.96 153.734C1287.76 153.545 1324.56 153.067 1361.36 152.305C1337.33 198.954 1312.81 245.479 1287.8 291.874C1271.35 322.189 1258.29 344.755 1248.85 359.635C1239.41 374.527 1227.96 389.165 1214.5 403.537C1224.42 423.48 1235.84 454.534 1248.95 496.664C1264.44 545.977 1280.23 595.243 1296.32 644.456C1258.8 644.864 1221.26 644.988 1183.73 644.834C1167.39 568.253 1151.55 491.619 1136.22 414.938C1122.43 491.306 1108.25 567.639 1093.66 643.924C1061.63 643.411 1029.59 642.69 997.562 641.768Z" fill="#001BA5"/>
<path d="M1323.58 518.192C1328.82 482.873 1333.99 447.542 1339.06 412.211C1397.26 411.224 1455.46 409.541 1513.62 407.16C1509.39 442.603 1505.08 478.046 1500.68 513.484C1441.66 515.758 1382.63 517.323 1323.58 518.192Z" fill="#001BA5"/>
<path d="M1688.68 636.969C1648.41 639.497 1617.45 628.486 1596.15 604.261C1574.82 580.041 1563.2 544.001 1560.98 496.295C1559.87 472.672 1561.41 444.052 1565.5 410.434C1576.35 321.478 1586.65 232.498 1596.41 143.506C1626.33 141.887 1656.24 140.074 1686.15 138.071C1677.04 232.793 1667.32 327.503 1656.98 422.201C1654.4 444.654 1653.47 462.128 1654.21 474.627C1656.16 507.495 1667.59 523.32 1688.51 521.991C1702.91 521.07 1714.1 512.191 1721.97 495.379C1729.84 478.573 1735.42 453.078 1738.69 418.905C1747.94 323.403 1756.56 227.896 1764.56 132.388C1794.44 130.055 1824.32 127.527 1854.18 124.81C1847.28 221.12 1839.76 317.443 1831.6 413.76C1825.52 485.94 1814.43 537.102 1798.54 567.181C1775.66 610.363 1738.83 633.826 1688.68 636.98L1688.68 636.969Z" fill="#001BA5"/>
<path d="M1921.65 611.714C1931.85 483.368 1940.93 355.035 1948.9 226.719C1924.48 229.235 1900.06 231.622 1875.62 233.884C1878.28 196.616 1880.86 159.347 1883.33 122.079C1961.29 114.659 2039.15 105.94 2116.89 95.9219C2115.65 133.249 2114.32 170.583 2112.89 207.922C2088.52 211 2064.14 213.953 2039.75 216.777C2033.42 345.182 2025.97 473.627 2017.4 602.091C1985.49 605.505 1953.58 608.713 1921.65 611.714Z" fill="#001BA5"/>
<path d="M2064.97 596.855C2085.97 513.505 2106 430.083 2125.04 346.609C2147.68 247.498 2168.17 160.781 2187.29 86.492C2225.7 81.1459 2264.07 75.4869 2302.41 69.5088C2319.41 142.888 2336.47 226.575 2353.46 320.594C2367.42 397.73 2381.44 474.854 2395.51 551.966C2360.32 557.537 2325.11 562.859 2289.86 567.934C2286.85 539.319 2283.84 510.711 2280.81 482.096C2250.82 486.426 2220.81 490.573 2190.78 494.531C2185.37 524.244 2179.85 553.951 2174.23 583.658C2137.83 588.319 2101.42 592.72 2064.98 596.849L2064.97 596.855ZM2207.28 401.794C2228.41 398.923 2249.53 395.958 2270.65 392.904C2262.55 318.172 2254.36 243.452 2246.11 168.744C2233.9 246.441 2220.96 324.126 2207.28 401.794Z" fill="#001BA5"/>
<g opacity="0.65">
<path d="M32.8218 542.678C86.9021 385.511 139.151 227.89 189.563 69.8428C219.276 74.2023 249.013 78.3668 278.768 82.3424C260.213 143.488 241.387 204.574 222.289 265.595C248.989 269.281 275.702 272.82 302.432 276.21C320.844 214.976 338.985 153.683 356.855 92.3314C386.645 95.9762 416.446 99.426 446.266 102.687C401.714 262.476 355.313 421.911 307.069 580.956C275.206 577.099 243.36 573.041 211.538 568.781C231.097 507.069 250.372 445.298 269.375 383.467C242.243 379.958 215.129 376.29 188.027 372.48C168.333 434.098 148.36 495.65 128.111 557.138C96.3241 552.519 64.5611 547.699 32.8159 542.672L32.8218 542.678Z" fill="#DA2128"/>
<path d="M344.227 585.36C383.551 508.927 421.924 432.204 459.352 355.204C503.804 263.785 543.37 183.955 578.766 115.922C617.334 119.407 655.92 122.567 694.523 125.415C694.458 200.737 692.131 286.114 687.381 381.539C683.512 459.832 679.702 538.126 675.945 616.42C640.496 613.886 605.059 611.11 569.645 608.073C573.19 579.524 576.728 550.968 580.249 522.419C550.104 519.849 519.978 517.103 489.863 514.167C477.877 541.883 465.785 569.576 453.593 597.239C417.116 593.547 380.663 589.59 344.233 585.366L344.227 585.36ZM526.895 427.567C548.102 429.552 569.32 431.442 590.539 433.244C599.565 358.619 608.503 283.987 617.364 209.344C587.928 282.262 557.772 355.009 526.895 427.567Z" fill="#DA2128"/>
<path d="M877.486 635.068C830.583 632.977 794.98 612.29 771.227 573.492C747.433 534.693 737.917 483.047 742.069 418.729C745.525 365.051 757.393 316.34 777.205 272.485C797.018 228.63 823.264 194.168 855.883 168.885C888.509 143.608 924.046 131.729 963.01 133.117C991.725 134.139 1016.77 142.054 1038.37 156.964C1031.67 192.053 1024.88 227.13 1018 262.195C1003.37 249.276 985.877 242.488 965.402 241.779C932.092 240.622 904.357 257.304 881.733 292.002C859.12 326.707 846.343 368.524 843.862 417.613C840.205 488.44 863.314 525.248 913.206 527.286C933.415 528.101 953.304 523.493 972.751 513.445C965.456 549.396 958.066 585.336 950.593 621.269C927.537 631.601 903.117 636.208 877.486 635.068Z" fill="#DA2128"/>
<path d="M996.364 632.47C1029.8 469.674 1061.38 306.665 1091.1 143.468C1121.05 143.987 1151 144.318 1180.96 144.454C1168.29 219.747 1155.22 295.011 1141.76 370.233C1178.89 295.241 1214.89 219.972 1249.76 144.436C1286.57 144.247 1323.36 143.769 1360.16 143.007C1336.13 189.656 1311.61 236.181 1286.6 282.576C1270.15 312.892 1257.09 335.457 1247.65 350.337C1238.21 365.229 1226.76 379.867 1213.3 394.24C1223.22 414.182 1234.64 445.236 1247.76 487.366C1263.24 536.68 1279.03 585.945 1295.13 635.158C1257.6 635.566 1220.06 635.69 1182.54 635.536C1166.19 558.956 1150.35 482.322 1135.02 405.64C1121.24 482.009 1107.05 558.341 1092.46 634.627C1060.43 634.113 1028.39 633.392 996.364 632.47Z" fill="#DA2128"/>
<path d="M1322.38 508.903C1327.62 473.583 1332.78 438.253 1337.86 402.922C1396.06 401.935 1454.25 400.252 1512.42 397.871C1508.19 433.314 1503.87 468.757 1499.47 504.195C1440.46 506.469 1381.42 508.034 1322.38 508.903Z" fill="#DA2128"/>
<path d="M1687.47 627.679C1647.2 630.207 1616.26 619.196 1594.95 594.965C1573.62 570.745 1561.99 534.711 1559.77 487.005C1558.67 463.382 1560.21 434.762 1564.3 401.144C1575.15 312.188 1585.45 223.208 1595.2 134.216C1625.12 132.597 1655.04 130.784 1684.94 128.781C1675.83 223.503 1666.11 318.213 1655.77 412.911C1653.19 435.364 1652.26 452.838 1653.01 465.337C1654.94 498.205 1666.38 514.03 1687.3 512.701C1701.7 511.78 1712.89 502.901 1720.76 486.089C1728.63 469.283 1734.21 443.788 1737.48 409.615C1746.73 314.113 1755.35 218.606 1763.35 123.098C1793.24 120.765 1823.11 118.237 1852.97 115.52C1846.08 211.83 1838.55 308.153 1830.39 404.47C1824.31 476.649 1813.23 527.812 1797.33 557.885C1774.45 601.073 1737.63 624.536 1687.47 627.69V627.679Z" fill="#DA2128"/>
<path d="M1920.45 602.425C1930.65 474.079 1939.73 345.746 1947.69 217.43C1923.28 219.946 1898.85 222.333 1874.42 224.595C1877.08 187.327 1879.66 150.058 1882.13 112.79C1960.09 105.37 2037.95 96.6514 2115.69 86.6328C2114.45 123.96 2113.11 161.294 2111.68 198.633C2087.32 201.711 2062.94 204.664 2038.55 207.488C2032.21 335.892 2024.77 464.338 2016.19 592.802C1984.29 596.216 1952.37 599.424 1920.44 602.425H1920.45Z" fill="#DA2128"/>
<path d="M2063.77 587.556C2084.77 504.206 2104.8 420.785 2123.84 337.31C2146.47 238.199 2166.97 151.482 2186.09 77.1931C2224.5 71.8471 2262.87 66.188 2301.21 60.21C2318.21 133.589 2335.28 217.276 2352.26 311.295C2366.22 388.431 2380.24 465.555 2394.31 542.668C2359.12 548.238 2323.91 553.56 2288.66 558.635C2285.65 530.02 2282.64 501.412 2279.61 472.797C2249.62 477.127 2219.6 481.274 2189.58 485.232C2184.17 514.945 2178.65 544.652 2173.03 574.36C2136.64 579.026 2100.22 583.421 2063.78 587.55L2063.77 587.556ZM2206.08 392.501C2227.21 389.63 2248.33 386.665 2269.44 383.611C2261.34 308.879 2253.17 234.159 2244.9 159.451C2232.7 237.148 2219.76 314.833 2206.08 392.501Z" fill="#DA2128"/>
</g>
<g opacity="0.64">
<path d="M38.4299 575.174C89.9465 417.204 139.797 258.833 187.982 100.089C217.867 104.035 247.769 107.786 277.683 111.348C259.991 172.753 242.057 234.105 223.874 295.398C250.717 298.712 277.571 301.878 304.431 304.891C321.922 243.391 339.171 181.844 356.172 120.25C386.109 123.475 416.053 126.506 446.014 129.347C403.724 289.757 359.763 449.859 314.124 609.619C282.113 606.217 250.114 602.607 218.127 598.791C236.675 536.79 254.97 474.734 273.01 412.626C245.743 409.496 218.487 406.217 191.243 402.779C172.505 464.68 153.508 526.529 134.262 588.312C102.304 584.136 70.3583 579.758 38.4299 575.174Z" fill="#120081"/>
<path d="M351.438 613.492C389.551 536.486 426.754 459.208 463.048 381.676C506.147 289.618 544.597 209.233 579.077 140.698C617.799 143.634 656.532 146.251 695.277 148.543C696.329 223.86 695.295 309.266 692.058 404.755C689.429 483.102 686.895 561.455 684.461 639.814C648.894 637.794 613.339 635.514 577.789 632.991C580.861 604.389 583.921 575.78 586.975 547.178C556.724 545.039 526.474 542.718 496.235 540.213C484.68 568.101 473.031 595.965 461.282 623.806C424.657 620.634 388.045 617.196 351.444 613.486L351.438 613.492ZM531.932 453.082C553.227 454.766 574.523 456.355 595.818 457.855C603.651 383.1 611.437 308.338 619.175 233.571C590.779 306.903 561.704 380.081 531.932 453.082Z" fill="#120081"/>
<path d="M886.707 655.567C839.686 654.156 803.664 633.982 779.214 595.527C754.729 557.071 744.332 505.554 747.457 441.178C750.062 387.452 761.186 338.576 780.372 294.431C799.553 250.299 825.338 215.464 857.65 189.715C889.968 163.971 925.399 151.584 964.458 152.411C993.238 153.019 1018.45 160.575 1040.31 175.171C1034.11 210.349 1027.83 245.52 1021.47 280.685C1006.62 267.973 988.996 261.446 968.475 261.026C935.087 260.353 907.548 277.425 885.414 312.454C863.297 347.478 851.14 389.472 849.439 438.596C846.911 509.471 870.675 545.948 920.691 547.271C940.953 547.797 960.795 542.9 980.112 532.574C973.389 568.625 966.59 604.671 959.702 640.711C936.783 651.373 912.404 656.347 886.707 655.567Z" fill="#120081"/>
<path d="M1005.73 651.237C1036.48 487.968 1065.55 324.517 1092.92 160.911C1122.92 161 1152.92 160.893 1182.92 160.598C1171.33 236.068 1159.38 311.509 1147.08 386.926C1183.09 311.409 1218 235.619 1251.81 159.594C1288.66 158.873 1325.49 157.863 1362.31 156.563C1338.94 203.555 1315.08 250.429 1290.75 297.184C1274.74 327.736 1262.02 350.485 1252.79 365.501C1243.57 380.523 1232.34 395.332 1219.09 409.893C1229.33 429.688 1241.26 460.571 1255.07 502.512C1271.37 551.595 1287.98 600.624 1304.92 649.595C1267.35 650.546 1229.78 651.214 1192.2 651.603C1174.55 575.271 1157.45 498.873 1140.88 422.422C1128.29 498.979 1115.33 575.507 1102 651.999C1069.91 651.952 1037.82 651.698 1005.73 651.237H1005.73Z" fill="#120081"/>
<path d="M1330.13 522.951C1334.81 487.555 1339.41 452.159 1343.93 416.758C1402.18 414.926 1460.39 412.398 1518.57 409.179C1514.89 444.681 1511.13 480.177 1507.3 515.668C1448.28 518.798 1389.22 521.226 1330.13 522.951Z" fill="#120081"/>
<path d="M1697.45 636.393C1657.2 639.507 1626.06 628.956 1604.33 605.038C1582.59 581.138 1570.36 545.275 1567.37 497.61C1565.88 474.005 1566.97 445.373 1570.52 411.696C1579.98 322.598 1588.94 233.482 1597.4 144.354C1627.31 142.299 1657.2 140.06 1687.09 137.626C1679.36 232.466 1671.07 327.306 1662.23 422.134C1660.01 444.617 1659.35 462.108 1660.3 474.59C1662.77 507.428 1674.47 523.076 1695.37 521.445C1709.77 520.317 1720.82 511.279 1728.42 494.355C1736.01 477.443 1741.2 451.871 1743.92 417.65C1751.65 322.037 1758.82 226.423 1765.43 130.809C1795.29 128.045 1825.12 125.085 1854.94 121.937C1849.45 218.336 1843.4 314.747 1836.77 411.158C1831.83 483.409 1821.57 534.719 1806.17 565.017C1784.01 608.523 1747.57 632.506 1697.45 636.393Z" fill="#120081"/>
<path d="M1930.06 607.755C1938.11 479.309 1945.14 350.875 1951.16 222.471C1926.79 225.336 1902.41 228.077 1878 230.693C1880.11 193.39 1882.13 156.092 1884.06 118.794C1961.9 110.252 2039.6 100.41 2117.14 89.2754C2116.45 126.621 2115.67 163.966 2114.8 201.317C2090.49 204.743 2066.17 208.045 2041.83 211.223C2037.45 339.699 2032.05 468.21 2025.64 596.75C1993.8 600.625 1961.93 604.294 1930.05 607.761L1930.06 607.755Z" fill="#120081"/>
<path d="M2073.12 590.817C2092.72 507.195 2111.38 423.514 2129.1 339.791C2150.15 240.379 2169.33 153.39 2187.34 78.8353C2225.64 72.9459 2263.89 66.7374 2302.09 60.21C2320.16 133.329 2338.48 216.756 2356.95 310.503C2372.12 387.409 2387.39 464.303 2402.75 541.179C2367.68 547.258 2332.58 553.082 2297.44 558.658C2293.95 530.103 2290.46 501.548 2286.96 472.992C2257.06 477.754 2227.14 482.332 2197.19 486.727C2192.27 516.505 2187.24 546.283 2182.12 576.061C2145.82 581.248 2109.48 586.168 2073.12 590.829V590.817ZM2212.17 393.777C2233.25 390.605 2254.31 387.338 2275.36 383.977C2266.06 309.387 2256.72 234.803 2247.34 160.225C2236.32 238.081 2224.6 315.938 2212.17 393.777Z" fill="#120081"/>
</g>
<path d="M0 535.723C54.0862 378.562 106.335 220.94 156.747 62.8936C186.46 67.2531 216.197 71.4176 245.952 75.3932C227.397 136.538 208.571 197.625 189.473 258.646C216.174 262.332 242.886 265.87 269.616 269.261C288.029 208.027 306.169 146.734 324.039 85.3881C353.829 89.0329 383.63 92.4827 413.45 95.7434C368.898 255.533 322.497 414.968 274.253 574.013C242.39 570.156 210.544 566.103 178.722 561.838C198.281 500.132 217.556 438.36 236.559 376.524C209.428 373.015 182.314 369.353 155.211 365.537C135.517 427.154 115.545 488.701 95.2947 550.189C63.5082 545.57 31.7452 540.75 0 535.723Z" fill="#DA2128"/>
<path d="M311.401 578.424C350.725 501.99 389.098 425.268 426.526 348.268C470.977 256.848 510.544 177.018 545.94 108.985C584.502 112.471 623.093 115.637 661.697 118.478C661.632 193.801 659.304 279.177 654.555 374.602C650.686 452.89 646.876 531.184 643.119 609.484C607.67 606.949 572.238 604.173 536.819 601.137C540.363 572.587 543.902 544.038 547.422 515.482C517.278 512.913 487.151 510.166 457.036 507.23C445.051 534.947 432.959 562.634 420.766 590.297C384.289 586.605 347.83 582.647 311.401 578.424ZM494.069 420.637C515.275 422.622 536.494 424.512 557.713 426.313C566.733 351.688 575.676 277.057 584.537 202.413C555.102 275.332 524.945 348.079 494.069 420.637Z" fill="#DA2128"/>
<path d="M844.67 628.123C797.773 626.032 762.164 605.345 738.411 566.552C714.617 527.754 705.101 476.107 709.253 411.79C712.709 358.111 724.577 309.406 744.389 265.546C764.202 221.691 790.448 187.228 823.067 161.945C855.693 136.668 891.23 124.789 930.194 126.177C958.909 127.199 983.955 135.121 1005.56 150.025C998.853 185.113 992.06 220.19 985.184 255.255C970.558 242.33 953.061 235.549 932.586 234.84C899.276 233.682 871.542 250.364 848.917 285.063C826.304 319.768 813.527 361.579 811.046 410.673C807.395 481.5 830.498 518.308 880.391 520.346C900.599 521.161 920.489 516.554 939.935 506.506C932.64 542.457 925.25 578.396 917.777 614.324C894.721 624.655 870.301 629.263 844.67 628.123Z" fill="#DA2128"/>
<path d="M963.543 625.524C996.989 462.734 1028.56 299.725 1058.28 136.527C1088.23 137.047 1118.18 137.378 1148.14 137.514C1135.47 212.807 1122.4 288.07 1108.94 363.292C1146.07 288.301 1182.07 213.031 1216.94 137.496C1253.75 137.307 1290.54 136.828 1327.34 136.066C1303.31 182.715 1278.79 229.24 1253.78 275.636C1237.33 305.951 1224.27 328.517 1214.83 343.397C1205.39 358.289 1193.94 372.927 1180.48 387.299C1190.4 407.242 1201.82 438.296 1214.94 480.426C1230.42 529.739 1246.21 579.005 1262.3 628.212C1224.78 628.619 1187.24 628.744 1149.71 628.59C1133.37 552.009 1117.53 475.381 1102.2 398.7C1088.42 475.068 1074.23 551.395 1059.64 627.68C1027.61 627.166 995.572 626.446 963.543 625.524Z" fill="#DA2128"/>
<path d="M1289.56 501.963C1294.8 466.644 1299.96 431.313 1305.04 395.982C1363.24 394.996 1421.43 393.312 1479.6 390.932C1475.37 426.375 1471.05 461.818 1466.65 497.255C1407.64 499.529 1348.6 501.101 1289.56 501.969L1289.56 501.963Z" fill="#DA2128"/>
<path d="M1654.65 620.727C1614.37 623.256 1583.43 612.245 1562.12 588.019C1540.79 563.8 1529.17 527.766 1526.95 480.054C1525.84 456.431 1527.38 427.81 1531.47 394.193C1542.32 305.236 1552.62 216.256 1562.38 127.265C1592.3 125.646 1622.21 123.833 1652.11 121.83C1643 216.552 1633.28 311.262 1622.94 405.96C1620.37 428.413 1619.44 445.886 1620.18 458.386C1622.12 491.254 1633.55 507.079 1654.47 505.75C1668.88 504.828 1680.07 495.95 1687.93 479.138C1695.8 462.332 1701.39 436.837 1704.66 402.664C1713.9 307.162 1722.52 211.655 1730.53 116.147C1760.41 113.814 1790.28 111.286 1820.14 108.568C1813.25 204.879 1805.72 301.202 1797.57 397.518C1791.49 469.698 1780.4 520.86 1764.5 550.934C1741.63 594.115 1704.8 617.567 1654.65 620.727Z" fill="#DA2128"/>
<path d="M1887.63 595.479C1897.83 467.134 1906.91 338.8 1914.87 210.49C1890.46 213.007 1866.03 215.393 1841.59 217.656C1844.26 180.387 1846.83 143.119 1849.31 105.85C1927.27 98.431 2005.13 89.7119 2082.87 79.6934C2081.63 117.021 2080.29 154.354 2078.86 191.694C2054.5 194.771 2030.12 197.725 2005.73 200.548C1999.39 328.953 1991.94 457.393 1983.37 585.857C1951.47 589.271 1919.55 592.479 1887.62 595.479H1887.63Z" fill="#DA2128"/>
<path d="M2030.95 580.611C2051.95 497.261 2071.97 413.845 2091.02 330.371C2113.65 231.26 2134.14 144.542 2153.27 70.2537C2191.67 64.9077 2230.04 59.2486 2268.38 53.2705C2285.38 126.65 2302.45 210.337 2319.44 304.355C2333.39 381.486 2347.41 458.61 2361.48 535.722C2326.29 541.293 2291.08 546.615 2255.83 551.689C2252.83 523.075 2249.81 494.466 2246.78 465.858C2216.79 470.188 2186.78 474.335 2156.75 478.293C2151.34 508.006 2145.82 537.713 2140.2 567.414C2103.81 572.081 2067.39 576.476 2030.95 580.605L2030.95 580.611ZM2173.26 385.556C2194.39 382.685 2215.51 379.719 2236.62 376.665C2228.52 301.934 2220.34 227.214 2212.08 152.505C2199.88 230.203 2186.94 307.888 2173.26 385.556Z" fill="#DA2128"/>
<path d="M13.1434 485.452C67.2237 328.291 119.473 170.67 169.885 12.623C199.598 16.9826 229.335 21.1471 259.089 25.1227C240.535 86.268 221.708 147.354 202.61 208.375C229.311 212.062 256.023 215.6 282.753 218.991C301.166 157.757 319.307 96.4638 337.176 35.1176C366.966 38.7624 396.768 42.2122 426.587 45.4729C382.035 205.262 335.634 364.697 287.39 523.742C255.527 519.885 223.681 515.827 191.859 511.568C211.418 449.861 230.693 388.09 249.697 326.253C222.565 322.744 195.451 319.082 168.349 315.266C148.654 376.884 128.682 438.431 108.432 499.919C76.6456 495.299 44.8827 490.479 13.1375 485.452H13.1434Z" fill="#690AB3"/>
<path d="M324.548 528.15C363.872 451.717 402.246 374.995 439.674 297.994C484.125 206.575 523.691 126.745 559.087 58.7119C597.649 62.1972 636.241 65.3634 674.845 68.2048C674.78 143.527 672.452 228.904 667.703 324.329C663.834 402.617 660.023 480.91 656.266 559.21C620.817 556.676 585.386 553.9 549.967 550.863C553.517 522.314 557.049 493.764 560.57 465.209C530.426 462.639 500.299 459.893 470.184 456.957C458.198 484.673 446.106 512.36 433.914 540.024C397.437 536.332 360.978 532.374 324.548 528.15ZM507.216 370.357C528.423 372.342 549.642 374.233 570.86 376.034C579.881 301.409 588.824 226.777 597.685 152.134C568.249 225.052 538.093 297.799 507.216 370.357Z" fill="#690AB3"/>
<path d="M857.806 577.852C810.909 575.761 775.3 555.08 751.547 516.282C727.759 477.483 718.237 425.837 722.39 361.519C725.845 307.841 737.713 259.13 757.526 215.275C777.338 171.42 803.584 136.958 836.203 111.675C868.829 86.3979 904.366 74.5186 943.33 75.9068C972.045 76.9287 997.092 84.8443 1018.69 99.7541C1011.99 134.843 1005.2 169.92 998.32 204.985C983.694 192.06 966.197 185.278 945.723 184.569C912.412 183.412 884.678 200.094 862.053 234.792C839.44 269.497 826.663 311.308 824.182 360.403C820.532 431.23 843.635 468.038 893.527 470.076C913.735 470.891 933.625 466.283 953.071 456.235C945.776 492.186 938.386 528.125 930.913 564.059C907.858 574.385 883.437 579.004 857.812 577.858L857.806 577.852Z" fill="#690AB3"/>
<path d="M976.691 575.254C1010.13 412.463 1041.71 249.449 1071.42 86.2567C1101.37 86.7765 1131.33 87.1073 1161.28 87.2432C1148.61 162.536 1135.55 237.8 1122.08 313.022C1159.22 238.03 1195.22 162.761 1230.09 87.2254C1266.89 87.0364 1303.69 86.5579 1340.48 85.7959C1316.46 132.445 1291.94 178.97 1266.93 225.365C1250.48 255.681 1237.42 278.246 1227.98 293.126C1218.54 308.018 1207.09 322.656 1193.63 337.029C1203.54 356.971 1214.97 388.019 1228.08 430.155C1243.57 479.469 1259.36 528.735 1275.45 577.941C1237.92 578.349 1200.39 578.473 1162.86 578.319C1146.52 501.739 1130.68 425.111 1115.34 348.429C1101.57 424.798 1087.38 501.124 1072.79 577.41C1040.75 576.896 1008.73 576.175 976.697 575.254H976.691Z" fill="#690AB3"/>
<path d="M1302.7 451.683C1307.94 416.364 1313.1 381.033 1318.18 345.702C1376.38 344.716 1434.57 343.032 1492.74 340.651C1488.51 376.094 1484.19 411.538 1479.79 446.975C1420.78 449.249 1361.74 450.815 1302.7 451.683Z" fill="#690AB3"/>
<path d="M1667.79 570.448C1627.52 572.976 1596.58 561.965 1575.27 537.74C1553.94 513.521 1542.31 477.487 1540.09 429.774C1538.98 406.151 1540.53 377.531 1544.62 343.913C1555.47 254.957 1565.77 165.977 1575.52 76.9853C1605.44 75.3667 1635.36 73.5532 1665.26 71.5507C1656.15 166.272 1646.43 260.982 1636.09 355.68C1633.51 378.134 1632.58 395.607 1633.32 408.107C1635.27 440.974 1646.7 456.8 1667.62 455.471C1682.02 454.549 1693.21 445.671 1701.08 428.859C1708.95 412.053 1714.53 386.557 1717.8 352.384C1727.05 256.883 1735.67 161.375 1743.67 65.868C1773.56 63.5346 1803.43 61.0064 1833.29 58.2891C1826.39 154.6 1818.87 250.922 1810.71 347.239C1804.63 419.419 1793.54 470.581 1777.65 500.655C1754.77 543.842 1717.94 567.288 1667.79 570.448Z" fill="#690AB3"/>
<path d="M1900.77 545.2C1910.97 416.855 1920.05 288.521 1928.02 160.211C1903.6 162.727 1879.17 165.114 1854.74 167.376C1857.4 130.108 1859.98 92.8395 1862.45 55.5711C1940.41 48.1517 2018.27 39.4327 2096.01 29.4141C2094.77 66.7416 2093.43 104.075 2092 141.414C2067.64 144.492 2043.26 147.446 2018.87 150.269C2012.54 278.674 2005.09 407.114 1996.52 535.577C1964.62 538.992 1932.69 542.199 1900.77 545.2H1900.77Z" fill="#690AB3"/>
<path d="M2044.09 530.34C2065.09 446.99 2085.12 363.575 2104.16 280.1C2126.79 180.989 2147.3 94.2719 2166.41 19.9832C2204.82 14.6372 2243.19 8.97807 2281.53 3C2298.53 76.3791 2315.6 160.066 2332.58 254.085C2346.54 331.215 2360.56 408.339 2374.63 485.452C2339.44 491.022 2304.23 496.345 2268.98 501.419C2265.97 472.804 2262.96 444.196 2259.93 415.587C2229.94 419.917 2199.92 424.064 2169.9 428.022C2164.49 457.735 2158.97 487.443 2153.35 517.144C2116.96 521.811 2080.54 526.205 2044.1 530.335L2044.09 530.34ZM2186.4 335.285C2207.53 332.414 2228.65 329.449 2249.76 326.395C2241.66 251.663 2233.48 176.943 2225.23 102.235C2213.02 179.932 2200.08 257.617 2186.4 335.285Z" fill="#690AB3"/>
<path d="M23.648 498.326C77.7283 341.159 129.977 183.544 180.389 25.4971C210.102 29.8566 239.839 34.0211 269.594 37.9967C251.039 99.142 232.213 160.228 213.115 221.249C239.816 224.936 266.528 228.474 293.258 231.865C311.671 170.631 329.812 109.338 347.681 47.9916C377.471 51.6364 407.273 55.0862 437.092 58.3469C392.54 218.136 346.139 377.571 297.895 536.616C266.032 532.765 234.186 528.701 202.364 524.442C221.923 462.729 241.198 400.958 260.201 339.127C233.07 335.619 205.956 331.956 178.853 328.14C159.159 389.758 139.187 451.311 118.937 512.793C87.1503 508.173 55.3873 503.353 23.6421 498.326H23.648Z" fill="black"/>
<path d="M335.043 541.018C374.367 464.585 412.74 387.863 450.168 310.863C494.62 219.443 534.186 139.613 569.582 71.5801C608.15 75.0653 646.735 78.2257 685.339 81.0729C685.274 156.395 682.947 241.772 678.197 337.197C674.328 415.491 670.518 493.784 666.761 572.078C631.312 569.544 595.881 566.762 560.461 563.731C564.011 535.182 567.544 506.627 571.064 478.077C540.92 475.508 510.793 472.761 480.679 469.825C468.693 497.541 456.601 525.234 444.408 552.892C407.932 549.2 371.472 545.242 335.043 541.018ZM517.711 383.226C538.918 385.21 560.136 387.101 581.355 388.902C590.375 314.277 599.318 239.645 608.179 165.002C578.744 237.921 548.588 310.668 517.711 383.226Z" fill="black"/>
<path d="M868.311 590.729C821.408 588.638 785.805 567.951 762.053 529.159C738.259 490.36 728.742 438.714 732.895 374.396C736.35 320.718 748.218 272.007 768.031 228.152C787.843 184.297 814.089 149.834 846.709 124.552C879.334 99.2807 914.872 87.3955 953.835 88.7837C982.544 89.8056 1007.6 97.7213 1029.2 112.631C1022.49 147.72 1015.7 182.791 1008.83 217.862C994.199 204.937 976.702 198.155 956.228 197.446C922.917 196.289 895.183 212.97 872.558 247.669C849.952 282.374 837.168 324.185 834.687 373.28C831.037 444.101 854.14 480.915 904.032 482.953C924.24 483.768 944.13 479.16 963.576 469.112C956.281 505.063 948.891 541.002 941.419 576.936C918.363 587.268 893.942 591.881 868.317 590.741L868.311 590.729Z" fill="black"/>
<path d="M987.19 588.126C1020.64 425.335 1052.21 262.321 1081.92 99.1229C1111.87 99.6427 1141.83 99.9735 1171.78 100.109C1159.11 175.402 1146.05 250.666 1132.58 325.888C1169.72 250.896 1205.72 175.627 1240.59 100.092C1277.39 99.9026 1314.19 99.4241 1350.98 98.6621C1326.96 145.311 1302.44 191.836 1277.43 238.231C1260.98 268.547 1247.92 291.112 1238.48 305.993C1229.04 320.885 1217.59 335.523 1204.13 349.895C1214.04 369.837 1225.47 400.886 1238.58 443.022C1254.07 492.335 1269.85 541.601 1285.95 590.814C1248.42 591.221 1210.89 591.345 1173.36 591.192C1157.02 514.611 1141.18 437.977 1125.84 361.302C1112.06 437.67 1097.88 513.996 1083.29 590.288C1051.25 589.774 1019.22 589.053 987.196 588.132L987.19 588.126Z" fill="black"/>
<path d="M1313.2 464.558C1318.44 429.239 1323.6 393.908 1328.68 358.577C1386.88 357.591 1445.07 355.907 1503.24 353.526C1499.01 388.969 1494.69 424.413 1490.29 459.85C1431.28 462.124 1372.24 463.69 1313.2 464.558Z" fill="black"/>
<path d="M1678.29 583.331C1638.02 585.859 1607.08 574.842 1585.78 550.617C1564.44 526.398 1552.82 490.364 1550.6 442.651C1549.49 419.028 1551.04 390.408 1555.12 356.79C1565.97 267.834 1576.28 178.854 1586.03 89.8623C1615.95 88.2437 1645.86 86.4302 1675.77 84.4277C1666.66 179.149 1656.93 273.859 1646.6 368.557C1644.02 391.011 1643.09 408.484 1643.83 420.984C1645.77 453.851 1657.21 469.677 1678.12 468.348C1692.53 467.426 1703.72 458.548 1711.59 441.736C1719.46 424.93 1725.04 399.434 1728.31 365.261C1737.55 269.76 1746.17 174.252 1754.18 78.7449C1784.06 76.4116 1813.93 73.8833 1843.8 71.166C1836.9 167.477 1829.38 263.799 1821.22 360.116C1815.14 432.296 1804.05 483.458 1788.16 513.532C1765.28 556.719 1728.45 580.177 1678.3 583.337L1678.29 583.331Z" fill="black"/>
<path d="M1911.27 558.08C1921.47 429.735 1930.55 301.401 1938.51 173.085C1914.1 175.601 1889.67 177.988 1865.24 180.25C1867.9 142.982 1870.48 105.714 1872.95 68.4451C1950.91 61.0257 2028.77 52.3067 2106.51 42.2881C2105.27 79.6156 2103.93 116.949 2102.5 154.288C2078.14 157.366 2053.76 160.32 2029.37 163.143C2023.04 291.548 2015.59 419.994 2007.01 548.457C1975.11 551.872 1943.19 555.079 1911.27 558.08H1911.27Z" fill="black"/>
<path d="M2054.59 543.212C2075.59 459.861 2095.61 376.44 2114.66 292.965C2137.29 193.855 2157.79 107.143 2176.91 32.8484C2215.31 27.5024 2253.68 21.8433 2292.02 15.8652C2309.02 89.2443 2326.09 172.931 2343.08 266.95C2357.04 344.086 2371.05 421.21 2385.13 498.323C2349.94 503.893 2314.72 509.216 2279.48 514.29C2276.47 485.676 2273.46 457.067 2270.43 428.453C2240.43 432.783 2210.42 436.93 2180.39 440.887C2174.98 470.6 2169.47 500.308 2163.84 530.015C2127.45 534.682 2091.04 539.077 2054.59 543.206L2054.59 543.212ZM2196.9 348.15C2218.03 345.28 2239.15 342.314 2260.26 339.26C2252.17 264.528 2243.98 189.808 2235.73 115.1C2223.52 192.797 2210.58 270.483 2196.9 348.15Z" fill="black"/>
<path d="M31.461 486.017C85.4704 328.827 137.654 171.182 188.001 13.1172C217.732 17.4649 247.481 21.6176 277.247 25.5873C258.71 86.7385 239.908 147.831 220.834 208.864C247.546 212.538 274.27 216.07 301.006 219.443C319.395 158.204 337.518 96.9047 355.364 35.5468C385.166 39.1797 414.985 42.6236 444.816 45.8725C400.312 205.68 353.958 365.126 305.773 524.189C273.904 520.344 242.052 516.297 210.218 512.05C229.753 450.332 249.005 388.554 267.985 326.712C240.847 323.209 213.721 319.558 186.613 315.754C166.942 377.378 147 438.937 126.773 500.436C94.981 495.829 63.2062 491.02 31.4551 486.011L31.461 486.017Z" stroke="url(#paint0_linear_366_364)" stroke-width="5"/>
<path d="M342.935 528.584C382.235 452.14 420.59 375.399 458.001 298.387C502.429 206.956 541.983 127.12 577.373 59.0693C615.953 62.5428 654.556 65.6972 693.178 68.5386C693.136 143.861 690.827 229.238 686.101 324.662C682.249 402.956 678.457 481.25 674.724 559.55C639.269 557.028 603.825 554.251 568.4 551.233C571.938 522.683 575.465 494.128 578.98 465.572C548.83 463.015 518.691 460.268 488.57 457.344C476.591 485.066 464.51 512.759 452.318 540.422C415.835 536.742 379.37 532.796 342.935 528.584ZM525.591 370.733C546.803 372.711 568.028 374.596 589.252 376.392C598.255 301.766 607.175 227.129 616.018 152.486C586.594 225.41 556.456 298.163 525.591 370.733Z" stroke="url(#paint1_linear_366_364)" stroke-width="5"/>
<path d="M876.319 578.149C829.41 576.064 793.79 555.389 770.025 516.596C746.219 477.798 736.685 426.157 740.826 361.84C744.27 308.161 756.132 259.445 775.938 215.59C795.751 171.729 821.997 137.266 854.628 111.978C887.265 86.695 922.809 74.8097 961.79 76.192C990.511 77.208 1015.58 85.1296 1037.19 100.033C1030.48 135.122 1023.7 170.199 1016.82 205.264C1002.18 192.345 984.687 185.564 964.2 184.855C930.872 183.703 903.138 200.385 880.507 235.089C857.895 269.8 845.123 311.617 842.648 360.706C839.009 431.533 862.124 468.341 912.034 470.373C932.248 471.188 952.144 466.574 971.59 456.526C964.295 492.477 956.917 528.417 949.444 564.35C926.383 574.682 901.962 579.301 876.325 578.167L876.319 578.149Z" stroke="url(#paint2_linear_366_364)" stroke-width="5"/>
<path d="M995.22 575.538C1028.65 412.742 1060.22 249.727 1089.93 86.5292C1119.89 87.049 1149.86 87.3739 1179.83 87.5098C1167.16 162.803 1154.08 238.066 1140.63 313.294C1177.76 238.303 1213.77 163.027 1248.66 87.492C1285.48 87.303 1322.29 86.8245 1359.1 86.0625C1335.06 132.712 1310.53 179.237 1285.51 225.632C1269.05 255.947 1255.99 278.513 1246.55 293.393C1237.1 308.291 1225.65 322.929 1212.19 337.295C1222.11 357.238 1233.53 388.286 1246.65 430.422C1262.14 479.735 1277.94 529.001 1294.04 578.214C1256.5 578.621 1218.96 578.746 1181.42 578.592C1165.07 502.017 1149.22 425.383 1133.88 348.702C1120.1 425.07 1105.92 501.397 1091.33 577.688C1059.29 577.174 1027.25 576.454 995.22 575.538Z" stroke="url(#paint3_linear_366_364)" stroke-width="5"/>
<path d="M1321.3 451.944C1326.55 416.624 1331.7 381.294 1336.78 345.963C1395 344.976 1453.21 343.293 1511.4 340.918C1507.16 376.361 1502.84 411.804 1498.44 447.236C1439.41 449.504 1380.36 451.081 1321.3 451.944Z" stroke="url(#paint4_linear_366_364)" stroke-width="5"/>
<path d="M1686.46 570.747C1646.18 573.269 1615.23 562.252 1593.92 538.027C1572.59 513.802 1560.97 477.762 1558.75 430.055C1557.65 406.432 1559.2 377.812 1563.29 344.194C1574.15 255.238 1584.47 166.258 1594.24 77.2663C1624.17 75.6477 1654.1 73.8401 1684.02 71.8435C1674.89 166.565 1665.14 261.275 1654.79 355.967C1652.21 378.421 1651.27 395.894 1652.02 408.394C1653.96 441.261 1665.39 457.081 1686.31 455.757C1700.72 454.842 1711.92 445.963 1719.79 429.152C1727.65 412.346 1733.25 386.856 1736.53 352.677C1745.79 257.181 1754.44 161.674 1762.46 66.1667C1792.36 63.8333 1822.24 61.3169 1852.11 58.6055C1845.19 154.916 1837.64 251.233 1829.45 347.55C1823.36 419.73 1812.25 470.892 1796.35 500.965C1773.46 544.141 1736.62 567.598 1686.46 570.747Z" stroke="url(#paint5_linear_366_364)" stroke-width="5"/>
<path d="M1919.49 545.537C1929.72 417.197 1938.85 288.863 1946.85 160.548C1922.42 163.058 1897.99 165.439 1873.55 167.695C1876.22 130.427 1878.81 93.1583 1881.3 55.8958C1959.29 48.4941 2037.19 39.7928 2114.96 29.7979C2113.7 67.1254 2112.35 104.459 2110.9 141.798C2086.53 144.87 2062.14 147.812 2037.74 150.635C2031.36 279.04 2023.87 407.48 2015.25 535.943C1983.34 539.346 1951.42 542.548 1919.48 545.542L1919.49 545.537Z" stroke="url(#paint6_linear_366_364)" stroke-width="5"/>
<path d="M2062.84 530.71C2083.87 447.366 2103.92 363.95 2123.01 280.482C2145.68 181.377 2166.23 94.6711 2185.38 20.3823C2223.8 15.0481 2262.2 9.40083 2300.55 3.43457C2317.52 76.8196 2334.56 160.513 2351.5 254.543C2365.43 331.685 2379.41 408.815 2393.45 485.934C2358.25 491.492 2323.03 496.803 2287.77 501.859C2284.78 473.245 2281.77 444.631 2278.76 416.022C2248.76 420.34 2218.74 424.475 2188.7 428.427C2183.28 458.14 2177.75 487.848 2172.12 517.549C2135.72 522.204 2099.29 526.587 2062.85 530.71H2062.84ZM2205.24 335.69C2226.38 332.825 2247.51 329.872 2268.63 326.824C2260.56 252.092 2252.41 177.366 2244.18 102.652C2231.94 180.343 2218.96 258.028 2205.24 335.69Z" stroke="url(#paint7_linear_366_364)" stroke-width="5"/>
<defs>
<linearGradient id="paint0_linear_366_364" x1="238.136" y1="13.1172" x2="238.136" y2="524.189" gradientUnits="userSpaceOnUse">
<stop stop-color="white"/>
<stop offset="0.379808" stop-color="#ED1C24"/>
</linearGradient>
<linearGradient id="paint1_linear_366_364" x1="518.056" y1="59.0693" x2="518.056" y2="559.55" gradientUnits="userSpaceOnUse">
<stop stop-color="white"/>
<stop offset="0.379808" stop-color="#ED1C24"/>
</linearGradient>
<linearGradient id="paint2_linear_366_364" x1="888.539" y1="76.084" x2="888.539" y2="578.335" gradientUnits="userSpaceOnUse">
<stop stop-color="white"/>
<stop offset="0.379808" stop-color="#ED1C24"/>
</linearGradient>
<linearGradient id="paint3_linear_366_364" x1="1177.16" y1="86.0625" x2="1177.16" y2="578.656" gradientUnits="userSpaceOnUse">
<stop stop-color="white"/>
<stop offset="0.379808" stop-color="#ED1C24"/>
</linearGradient>
<linearGradient id="paint4_linear_366_364" x1="1416.35" y1="340.918" x2="1416.35" y2="451.944" gradientUnits="userSpaceOnUse">
<stop stop-color="white"/>
<stop offset="0.379808" stop-color="#ED1C24"/>
</linearGradient>
<linearGradient id="paint5_linear_366_364" x1="1705.26" y1="58.6055" x2="1705.26" y2="571.099" gradientUnits="userSpaceOnUse">
<stop stop-color="white"/>
<stop offset="0.379808" stop-color="#ED1C24"/>
</linearGradient>
<linearGradient id="paint6_linear_366_364" x1="1994.25" y1="29.7979" x2="1994.25" y2="545.542" gradientUnits="userSpaceOnUse">
<stop stop-color="white"/>
<stop offset="0.379808" stop-color="#ED1C24"/>
</linearGradient>
<linearGradient id="paint7_linear_366_364" x1="2228.14" y1="3.43457" x2="2228.14" y2="530.71" gradientUnits="userSpaceOnUse">
<stop stop-color="white"/>
<stop offset="0.379808" stop-color="#ED1C24"/>
</linearGradient>
</defs>
</svg>
