<svg width="949" height="535" viewBox="0 0 949 535" fill="none" xmlns="http://www.w3.org/2000/svg">
<g clip-path="url(#clip0_580_50)">
<path d="M229.5 238L241.5 146L252.5 145V139.5L281 136V129L304.5 126L310.5 131.5L312 123L336.5 120.5L343.5 129L407.5 126L457 144L449 266L499.5 263.295L505 263L519 268.31L529.5 0L636.5 0.237251L697.5 0.372506L693.5 535H714.5L726 205H730.5L731.5 176.5L752 173L755 0.5H949.5V535H924.5H893.5H851.5H824.5H804.5H765.5H741.5H714.5H693.5H628H553.5H540H527.5H496H425.5H373.5H199H147L186 238H229.5Z" fill="url(#paint0_linear_580_50)"/>
<path d="M229.5 238L241.5 146L252.5 145V139.5L281 136V129L304.5 126L310.5 131.5L312 123L336.5 120.5L343.5 129L407.5 126M229.5 238L199 535M229.5 238H186L147 535M407.5 126L457 144L449 266M407.5 126L373.5 535M449 266H441L425.5 535M449 266L499.5 263.295L505 263M505 263L496 535M505 263L519 268.31M752 173L731.5 176.5L730.5 205H726L714.5 535M752 173L755 0.5H949.5V535H924.5H893.5H851.5H824.5H804.5H765.5H741.5M752 173L741.5 535M636.5 0.237251L529.5 0L519 268.31M636.5 0.237251L697.5 0.372506L693.5 535M636.5 0.237251L628 535M147 535H0M147 535H199M199 535H373.5M425.5 535H496M425.5 535H373.5M496 535H527.5M527.5 535L534 274L527.5 271.534L519 268.31M527.5 535H540H553.5H628M693.5 535H714.5M693.5 535H628M714.5 535H741.5" stroke="black"/>
</g>
<defs>
<linearGradient id="paint0_linear_580_50" x1="474.75" y1="0" x2="474.75" y2="535" gradientUnits="userSpaceOnUse">
<stop offset="0.0817308" stop-color="#243151"/>
<stop offset="1" stop-color="#5D7FC7"/>
</linearGradient>
<clipPath id="clip0_580_50">
<rect width="949" height="535" fill="white"/>
</clipPath>
</defs>
</svg>
