<svg width="949" height="916" viewBox="0 0 949 916" fill="none" xmlns="http://www.w3.org/2000/svg">
<g clip-path="url(#clip0_580_50)">
<path d="M87.5 367.5L80.5 410.5L100 410.189L103.5 376.5L127 374.106L128 356.5L138.5 355.975L153.5 355.225L158 355H160L185.5 359.5V377.779L197.5 380.684L201 381.532L206 352L230 349.62L232.5 331.5L247.5 329.909L265.5 328L294 335L292 352L273 505H303.5L303.558 534.5H406.15L407.5 461.5H415.5L418 433.5L437.5 432L447.5 431L462 434.5L481.5 440L483.782 399.5L485.5 369H491L490 390L495.5 381.5H500H506.5L512.5 374V365.5H517H521.5V374L525.136 379H543.057L543.5 365.5H548L547.53 378.75L555.542 379L557.5 376V367H562.5V376L569 398H571.5V371.5L574.5 369L570.892 638.5H807.25L809.5 534.5V476.5V471L837.618 469.891L850.5 469.384L874.5 468.437L944 465.697L949 465.5V472V515V916.5H805H569.5H542H477H441H402H366H356.5H318H304H266.5H152H20.5H0V534V334.5L9 337.894L36.5 348.266L46.5 347.5L66.9 355L80.5 360V364.86L87.5 367.5Z" fill="url(#paint0_linear_580_50)"/>
<path d="M80.5 410.5L87.5 367.5L80.5 364.86M80.5 410.5H57.5L20.5 916.5M80.5 410.5L100 410.189M949 515V916.5H805M949 515L809.5 534.5M949 515V472M805 916.5H569.5M805 916.5L807.25 638.5M809.5 534.5V476.5M809.5 534.5L807.25 638.5M809.5 476.5V471L837.618 469.891L850.5 469.384L874.5 468.437L944 465.697L949 465.5V472M809.5 476.5L949 472M206 408.5L190 504M206 408.5L195.5 408.667M206 408.5L235 412.183M190 504H156.5L152 916.5M190 504L225.5 504.5M261 505L266.5 916.5M261 505L246.5 504.796M261 505H273M304 916.5H318H356.5H366H402M304 916.5H0L0 534V334.5L9 337.894L80.5 364.86M304 916.5L303.558 534.5M225.5 504.5L237.5 412.5L235 412.183M225.5 504.5L246.5 504.796M134 409.647L135 397.5H143V393H157.5M134 409.647L195.5 408.667M134 409.647L100 410.189M197.5 393L195.5 408.667M197.5 393H157.5M197.5 393L205 393.652M235 412.183V404L220 403L220.5 395L205 393.652M36.5 348.266L46.5 347.5L66.9 355L80.5 360V364.86M100 410.189L103.5 376.5L127 374.106M157.5 371V393M157.5 371L127 374.106M157.5 371L158 371.121M205 393.652V382.5L201 381.532M127 374.106L128 356.5L138.5 355.975L153.5 355.225L158 355M158 355V371.121M158 355H160L185.5 359.5V377.779M185.5 377.779L158 371.121M185.5 377.779L197.5 380.684L201 381.532M402 916.5H441M402 916.5L406.15 534.5M444.5 461.5L441 916.5M444.5 461.5H415.5M444.5 461.5L446 461.787M478.5 468L477 916.5M478.5 468L446 461.787M478.5 468L481.5 440M477 916.5H441M477 916.5H542M415.5 461.5H407.5L406.15 534.5M415.5 461.5L418 433.5L437.5 432L447.5 431M447.5 431L446 461.787M447.5 431L462 434.5L481.5 440M481.5 440L483.782 399.5M506.5 381.5L512.5 374V365.5H517H521.5V374L525.136 379M506.5 381.5L492 399.5H483.782M506.5 381.5H500H495.5L490 390L491 369H485.5L483.782 399.5M542 916.5L547.059 392M542 916.5H569.5M547.059 392L555.542 379M547.059 392L547.53 378.75M569.5 916.5L570.892 638.5M543.057 379L542.5 396H537.5L525.136 379M543.057 379L543.5 365.5H548L547.53 378.75M543.057 379H525.136M555.542 379L557.5 376V367H562.5V376L569 398H571.5V371.5L574.5 369L570.892 638.5M555.542 379L547.53 378.75M246.5 504.796L266.5 346M266.5 346L292 352M266.5 346L265.5 346.099M292 352L294 335L265.5 328M292 352L273 505M201 381.532L206 352L230 349.62M230 349.62L232.5 331.5L247.5 329.909L265.5 328M230 349.62L265.5 346.099M265.5 328V346.099M273 505H303.5L303.558 534.5M303.558 534.5H406.15M807.25 638.5H570.892" stroke="black"/>
</g>
<defs>
<linearGradient id="paint0_linear_580_50" x1="0" y1="431.25" x2="949" y2="431.25" gradientUnits="userSpaceOnUse">
<stop stop-color="#352F31"/>
<stop offset="1" stop-color="#52403C"/>
</linearGradient>
<clipPath id="clip0_580_50">
<rect width="949" height="916" fill="white"/>
</clipPath>
</defs>
</svg>
