<svg width="949" height="535" viewBox="0 0 949 535" fill="none" xmlns="http://www.w3.org/2000/svg">
<g clip-path="url(#clip0_580_50)">
<path d="M845 119.5L851.5 120.5V126H862V119.5H867V126H878.5V118H882.5V124H894V118H897.5V126L900.227 128V123.5L903 125.5V130.033L905 131.5V126.5L907.5 128.5V133.333L909.773 135V130.033L912.5 132V137L914 138.1V134.5L917 136.5V140.3L918.5 141.4V136.5L920 137.5V142.5L924.5 535H893.5H851.5H824.5H804.5H765.5H669.5H629.5H566.5H553.5H540H516H489L503 194.5H523H530.5L544 201.5V231H551.5L562 242.5L553.5 535H566.5L582.5 100.5L592.5 99L593.5 70.5H597L598 48L636.5 43.4167L640 43L661.5 54.5V75.8404L665 78V107.016L673.5 111L669.5 535H765.5L769.5 228L801 227L819 237.5L824.5 535H851.5L845 119.5Z" fill="url(#paint0_linear_580_50)"/>
<path d="M897.5 126V118H894V124H882.5V118H878.5V126H867V119.5H862V126H851.5V120.5L845 119.5L851.5 535M897.5 126L900.227 128M897.5 126L893.5 535M920 142.5L918.5 141.4M920 142.5V137.5L918.5 136.5V141.4M920 142.5L924.5 535M801 227L769.5 228L765.5 535M801 227L819 237.5L824.5 535M801 227L804.5 535M592.5 99L582.5 100.5L566.5 535M592.5 99L593.5 70.5H597M592.5 99L636.5 93M597 70.5L598 48L636.5 43.4167L640 43M597 70.5L640 63.5M640 43V63.5M640 43L661.5 54.5V75.8404M640 63.5H641.5M641.5 63.5V96M641.5 63.5L661.5 75.8404M641.5 96L636.5 93M641.5 96L665 107.016M636.5 93L629.5 535M665 107.016L673.5 111L669.5 535M665 107.016V78L661.5 75.8404M530.5 194.5L544 201.5V231M530.5 194.5L528.689 241M530.5 194.5H523H503L489 535M544 231H535.5L532 241M544 231H551.5L562 242.5M532 241H528.689M532 241H553.5M528.689 241L516 535M562 242.5L553.5 241M562 242.5L553.5 535M553.5 241L540 535M900.227 128V123.5L903 125.5V130.033M900.227 128L903 130.033M903 130.033L905 131.5M905 131.5V126.5L907.5 128.5V133.333M905 131.5L907.5 133.333M907.5 133.333L909.773 135M909.773 135V130.033L912.5 132V137M909.773 135L912.5 137M912.5 137L914 138.1M914 138.1V134.5L917 136.5V140.3M914 138.1L917 140.3M917 140.3L918.5 141.4M540 535H553.5M540 535H516M553.5 535H566.5M566.5 535H629.5M629.5 535H669.5M669.5 535H765.5M765.5 535H804.5M765.5 535H950H924.5M804.5 535H824.5M824.5 535H851.5M851.5 535H893.5M893.5 535H924.5M1 535H489M489 535H516" stroke="black"/>
</g>
<defs>
<linearGradient id="paint0_linear_580_50" x1="474.75" y1="7.45361e-07" x2="474.75" y2="535" gradientUnits="userSpaceOnUse">
<stop offset="0.0817308" stop-color="#53A0D4"/>
<stop offset="1" stop-color="#9FC6F1"/>
</linearGradient>
<clipPath id="clip0_580_50">
<rect width="949" height="535" fill="white"/>
</clipPath>
</defs>
</svg>
