<svg width="949" height="535" viewBox="0 0 949 535" fill="none" xmlns="http://www.w3.org/2000/svg">
<g clip-path="url(#clip0_580_50)">
<path d="M1 207.5L24.5 222.5L10 337.894L6.39088 363L67.9 355L98 351.5L105 305.5L142.5 303.5L157.5 311.5L141.5 534.5H184.5L198.5 380.684L204.5 328H207L208 311.5L213.5 310.5V299.5H217V285H225.5H234.5L244 286.5L242.5 300.5H245V311.5H247.5V316.5H249.5L231 534.5H271L305.5 252L316 251.026L319.5 217L323.5 216.595V209.5L349 163.5H352V156H354V149H356L357 131.5L360 130.5L360.506 127L366.5 86L362.891 127L362.5 131.5L364.5 132.5L363.5 150.5H364.5V158L365.5 159V167L379.5 215.5V222.567L381.5 223.5L380.5 257.438L386 259.5L357.5 534.5H367L381.5 355.225L390.5 351.256L438 330.308L441.5 265H449.5L500 262.295L505.5 262L528 270.534L534.5 273L533.5 314.5L550 313.504L560.5 312.871L575 311.996L591.5 311L611.5 316L611.571 314.5L613 284.5H631V271L672.5 268.036L694 266.5L696 267.118L724 275.765L728 277V283.5L737 286.5V307H748V304.5H749H769H774.5L798.5 315.5V327.5L803.5 329.145L821.5 335.066L836.5 340L837.479 403.5L854.5 406.5V534.5H839.5H778H734.5H708.5H604.5H590H518H457.5H431H367H357.5H319H271H231H184.5H141.5H125.5H72.5H1V400.5V207.5Z" fill="url(#paint0_linear_580_50)"/>
<path d="M923 290.5L932.5 295V301.5L941 305V326L945 327.5V534.5H915.5H877L871.5 326H869V322.5L873.5 322.403V295H880V288H896.5H914L923 290.5Z" fill="url(#paint1_linear_580_50)"/>
<path d="M98 351.5L67.9 355L6.39088 363M98 351.5L88.5 410.388L72.5 534.5M98 351.5L105 305.5L142.5 303.5M142.5 303.5L157.5 311.5L141.5 534.5M142.5 303.5L125.5 534.5M367 534.5L381.5 355.225M367 534.5H357.5M367 534.5H431M381.5 355.225L390.5 351.256L438 330.308M381.5 355.225L443.5 349.5M445.5 327L468.5 342.5L467.199 362.5M445.5 327L443.5 349.5M445.5 327L438 330.308M443.5 349.5L467.199 362.5M443.5 349.5L431 534.5M467.199 362.5L457.5 534.5M354 247.5L357 248.625M354 247.5L316 251.026M354 247.5L319 534.5M357 248.625L359 213M357 248.625L380.5 257.438M359 213L356 213.304M359 213L379.5 222.567M380.5 257.438L386 259.5L357.5 534.5M380.5 257.438L381.5 223.5L379.5 222.567M316 251.026L305.5 252L271 534.5M316 251.026L319.5 217L323.5 216.595M323.5 216.595V209.5M323.5 216.595L356 213.304M323.5 209.5L349 163.5H352M323.5 209.5L356 206.5M358 163.5L356 206.5M358 163.5L365.5 167M358 163.5H352M356 206.5V213.304M356 206.5L379.5 215.5M365.5 167L379.5 215.5M365.5 167V159L364.5 158V150.5H363.5L364.5 132.5L362.5 131.5L362.891 127L366.5 86L360.506 127L360 130.5L357 131.5L356 149H354V156H352V163.5M379.5 215.5V222.567M438 330.308L441.5 265H449.5L500 262.295L505.5 262L528 270.534L534.5 273L533.5 314.5M533.5 314.5L532 321M533.5 314.5L550 313.504L560.5 312.871L575 311.996L591.5 311L611.5 316L611.571 314.5M694 266.5V278.5H711.5M694 266.5L672.5 268.036L631 271V284.5H613L611.571 314.5M694 266.5L696 267.118L724 275.765L728 277V283.5M728 283.5L737 286.5V307M728 283.5L711.5 278.5M737 307H748V304.5H749H769H774.5M737 307L734.5 534.5M774.5 304.5L798.5 315.5V327.5M774.5 304.5L776.5 320.5M798.5 327.5L776.5 320.5M798.5 327.5L803.5 329.145L821.5 335.066L836.5 340L837.479 403.5M932.5 301.5V295L923 290.5L914 288H896.5H880V295M932.5 301.5L941 305V326M932.5 301.5L914 295.652M941 326L945 327.5V534.5M941 326L915.5 321.5M532 321H520.5V345H518V534.5M532 321L594.5 319L590 534.5M711.5 278.5L708.5 534.5M776.5 320.5L778 534.5M915.5 321.5L914 321.532M915.5 321.5V534.5M880 295H873.5V322.403M880 295L914 295.652M873.5 322.403L869 322.5V326H871.5L877 534.5H915.5M873.5 322.403L914 321.532M914 295.652V321.532M231 534.5L249.5 316.5H247.5V311.5H245V300.5H242.5L244 286.5L234.5 285H225.5H217V299.5H213.5V310.5L208 311.5L207 328H204.5L198.5 380.684L184.5 534.5M231 534.5H184.5M231 534.5H271M1 400.5V534.5H72.5M1 400.5V207.5L24.5 222.5L10 337.894L6.39088 363M1 400.5L6.39088 363M125.5 534.5H72.5M125.5 534.5H141.5M141.5 534.5H184.5M271 534.5H319M319 534.5H357.5M431 534.5H457.5M950 534.5H945M457.5 534.5H518M518 534.5H590M590 534.5H604.5M604.5 534.5L611.571 314.5M604.5 534.5H708.5M708.5 534.5H734.5M734.5 534.5H778M778 534.5H839.5M839.5 534.5L837.479 403.5M839.5 534.5H854.5V406.5L837.479 403.5M915.5 534.5H945" stroke="black"/>
</g>
<defs>
<linearGradient id="paint0_linear_580_50" x1="475.5" y1="86" x2="475.5" y2="534.5" gradientUnits="userSpaceOnUse">
<stop stop-color="#20243F"/>
<stop offset="1" stop-color="#5C6489"/>
</linearGradient>
<linearGradient id="paint1_linear_580_50" x1="475.5" y1="86" x2="475.5" y2="534.5" gradientUnits="userSpaceOnUse">
<stop stop-color="#20243F"/>
<stop offset="1" stop-color="#5C6489"/>
</linearGradient>
<clipPath id="clip0_580_50">
<rect width="949" height="535" fill="white"/>
</clipPath>
</defs>
</svg>
